<svg width="102" height="34" viewBox="0 0 102 34" fill="none" xmlns="http://www.w3.org/2000/svg">
<path d="M37.9128 16.7795C37.9128 17.4358 37.9926 18.0032 38.1521 18.4817C38.3162 18.9602 38.5304 19.3567 38.7947 19.6711C39.059 19.981 39.3575 20.2135 39.6902 20.3684C40.0274 20.5188 40.3669 20.594 40.7087 20.594C41.0597 20.594 41.3787 20.5234 41.6658 20.3821C41.9529 20.2362 42.2035 20.0448 42.4177 19.8079C42.6365 19.5709 42.8165 19.302 42.9578 19.0012C43.099 18.6959 43.2016 18.3837 43.2654 18.0647H44.906C44.8012 18.607 44.6326 19.1129 44.4001 19.5823C44.1723 20.0471 43.8806 20.455 43.5251 20.8059C43.1742 21.1523 42.7618 21.4257 42.2878 21.6262C41.8184 21.8222 41.2921 21.9202 40.7087 21.9202C40.0343 21.9202 39.4259 21.8062 38.8835 21.5784C38.3412 21.3459 37.8787 21.011 37.4958 20.5735C37.113 20.1314 36.8168 19.5914 36.6072 18.9534C36.4021 18.3153 36.2996 17.5885 36.2996 16.7727C36.2996 16.1392 36.3975 15.5308 36.5935 14.9475C36.7895 14.3596 37.0743 13.8401 37.448 13.3889C37.8263 12.9377 38.2865 12.5777 38.8289 12.3088C39.3757 12.04 39.9978 11.9055 40.6951 11.9055C41.2875 11.9055 41.8162 11.9898 42.281 12.1584C42.7458 12.3271 43.1537 12.5618 43.5046 12.8625C43.8556 13.1588 44.1495 13.512 44.3865 13.9221C44.628 14.3323 44.8194 14.7812 44.9607 15.2688H43.2859C43.0444 14.5898 42.7117 14.0839 42.2878 13.7512C41.864 13.414 41.3331 13.2454 40.6951 13.2454C40.2849 13.2454 39.9089 13.3388 39.5671 13.5256C39.2299 13.7125 38.9382 13.9677 38.6921 14.2913C38.446 14.6103 38.2546 14.984 38.1179 15.4124C37.9812 15.8407 37.9128 16.2965 37.9128 16.7795ZM47.7361 12.1516V13.7581H46.1228V12.1516H47.7361ZM47.7361 14.7219V21.6809H46.1228V14.7219H47.7361ZM49.3289 14.7219H50.9421V15.5422C51.2429 15.2004 51.5574 14.9566 51.8855 14.8108C52.2182 14.6604 52.5577 14.5852 52.9041 14.5852C53.2595 14.5852 53.5785 14.6376 53.8611 14.7424C54.1436 14.8472 54.3806 14.9976 54.572 15.1936C54.768 15.385 54.9184 15.6174 55.0232 15.8909C55.128 16.1597 55.1804 16.4605 55.1804 16.7932V21.6809H53.5671V17.053C53.5671 16.8752 53.5421 16.718 53.4919 16.5813C53.4418 16.4446 53.3735 16.3284 53.2869 16.2327C53.2003 16.137 53.0977 16.0663 52.9792 16.0208C52.8608 15.9706 52.7354 15.9456 52.6033 15.9456C52.3891 15.9456 52.1817 15.9911 51.9812 16.0823C51.7807 16.1689 51.6029 16.2874 51.448 16.4377C51.2976 16.5836 51.1746 16.7545 51.0789 16.9504C50.9877 17.1418 50.9421 17.3424 50.9421 17.552V21.6809H49.3289V14.7219ZM58.0789 18.6321C58.1062 18.8827 58.1654 19.122 58.2566 19.3499C58.3477 19.5732 58.4639 19.7714 58.6052 19.9446C58.7465 20.1132 58.9106 20.2476 59.0974 20.3479C59.2843 20.4482 59.4848 20.4983 59.699 20.4983C60.0955 20.4983 60.4236 20.3912 60.6833 20.177C60.9477 19.9583 61.1573 19.6324 61.3123 19.1995H62.8025C62.7113 19.6142 62.5632 19.9833 62.3582 20.3069C62.1576 20.6305 61.9184 20.9039 61.6404 21.1272C61.3624 21.3505 61.0548 21.5214 60.7175 21.6399C60.3848 21.7584 60.0408 21.8176 59.6853 21.8176C59.184 21.8176 58.7328 21.7174 58.3318 21.5168C57.9307 21.3163 57.5889 21.0474 57.3064 20.7102C57.0238 20.373 56.8051 19.981 56.6501 19.5344C56.4998 19.0833 56.4246 18.6093 56.4246 18.1125C56.4246 17.6477 56.4998 17.2034 56.6501 16.7795C56.8051 16.3512 57.0238 15.9752 57.3064 15.6516C57.5889 15.3235 57.9307 15.0637 58.3318 14.8723C58.7374 14.6809 59.1908 14.5852 59.6921 14.5852C60.1752 14.5852 60.6127 14.6718 61.0046 14.845C61.3966 15.0181 61.7315 15.2597 62.0095 15.5696C62.2875 15.8749 62.4994 16.2372 62.6453 16.6565C62.7957 17.0712 62.8708 17.5201 62.8708 18.0032V18.6321H58.0789ZM61.2302 17.4084C61.2029 17.1897 61.1459 16.9915 61.0593 16.8137C60.9773 16.636 60.8679 16.4833 60.7312 16.3557C60.5945 16.2236 60.4327 16.1233 60.2458 16.0549C60.059 15.982 59.8539 15.9456 59.6306 15.9456C59.4255 15.9456 59.2341 15.9843 59.0564 16.0618C58.8832 16.1392 58.7283 16.2441 58.5916 16.3762C58.4594 16.5084 58.3477 16.6633 58.2566 16.8411C58.17 17.0188 58.1108 17.2079 58.0789 17.4084H61.2302ZM66.3162 12.1448L68.9822 19.6233L71.7029 12.1448H73.5212V21.6809H71.908V15.385L69.7136 21.6809H68.3464L66.1111 15.3645V21.6809H64.4978V12.1448H66.3162ZM81.8201 21.4963C81.6879 21.5784 81.5717 21.6399 81.4714 21.6809C81.3712 21.7265 81.28 21.7584 81.198 21.7766C81.1205 21.7994 81.0522 21.8108 80.9929 21.8108C80.9382 21.8153 80.8904 21.8176 80.8494 21.8176C80.6853 21.8176 80.5349 21.788 80.3982 21.7288C80.266 21.6695 80.1475 21.592 80.0427 21.4963C79.9425 21.3961 79.8536 21.2821 79.7761 21.1545C79.7032 21.0224 79.6417 20.8834 79.5916 20.7375C79.3865 20.9517 79.1928 21.1295 79.0105 21.2708C78.8282 21.4075 78.6482 21.5168 78.4705 21.5989C78.2927 21.6809 78.115 21.7379 77.9373 21.7698C77.7595 21.8017 77.575 21.8176 77.3835 21.8176C77.0691 21.8176 76.7751 21.7698 76.5017 21.6741C76.2328 21.5738 75.9981 21.4348 75.7976 21.2571C75.5971 21.0748 75.4399 20.856 75.3259 20.6008C75.212 20.3456 75.155 20.0631 75.155 19.7532C75.155 19.4843 75.2143 19.2519 75.3328 19.0559C75.4558 18.8599 75.6153 18.689 75.8113 18.5432C76.0118 18.3974 76.2374 18.2721 76.488 18.1672C76.7432 18.0624 77.0007 17.969 77.2605 17.887C77.5248 17.8004 77.7823 17.7183 78.033 17.6409C78.2882 17.5634 78.5138 17.4814 78.7097 17.3948C78.9102 17.3082 79.0697 17.2125 79.1882 17.1077C79.3113 16.9983 79.3728 16.8684 79.3728 16.718C79.3728 16.5722 79.3341 16.4514 79.2566 16.3557C79.1837 16.2555 79.088 16.1757 78.9695 16.1165C78.8556 16.0527 78.7257 16.0071 78.5798 15.9797C78.4386 15.9524 78.2996 15.9387 78.1628 15.9387C78.0261 15.9387 77.8894 15.9592 77.7527 16.0002C77.616 16.0367 77.4906 16.0959 77.3767 16.178C77.2673 16.26 77.1739 16.3671 77.0964 16.4993C77.019 16.6269 76.9688 16.7795 76.946 16.9573H75.3123C75.3396 16.5562 75.4376 16.2076 75.6062 15.9114C75.7794 15.6106 75.9981 15.3622 76.2625 15.1663C76.5268 14.9703 76.823 14.8245 77.1511 14.7288C77.4838 14.6331 77.821 14.5852 78.1628 14.5852C78.5365 14.5852 78.892 14.6262 79.2292 14.7083C79.571 14.7903 79.8718 14.9202 80.1316 15.0979C80.3914 15.2756 80.5987 15.5035 80.7537 15.7815C80.9086 16.0549 80.9861 16.3853 80.9861 16.7727V20.1497C80.9861 20.2408 81.0157 20.3251 81.075 20.4026C81.1342 20.4755 81.2185 20.512 81.3279 20.512C81.3416 20.512 81.3917 20.5074 81.4783 20.4983C81.5649 20.4846 81.6788 20.439 81.8201 20.3616V21.4963ZM79.3728 18.345C79.268 18.4088 79.1313 18.4657 78.9626 18.5159C78.794 18.566 78.6117 18.6184 78.4158 18.6731C78.2198 18.7232 78.0216 18.7779 77.821 18.8372C77.6251 18.8964 77.4473 18.967 77.2878 19.0491C77.1283 19.1265 76.9962 19.22 76.8914 19.3293C76.7911 19.4342 76.741 19.5595 76.741 19.7053C76.741 19.8466 76.7638 19.9674 76.8093 20.0676C76.8549 20.1679 76.9141 20.2499 76.9871 20.3137C77.0645 20.3775 77.1511 20.4254 77.2468 20.4573C77.3425 20.4846 77.4382 20.4983 77.5339 20.4983C77.8484 20.4983 78.1674 20.3935 78.491 20.1838C78.8191 19.9696 79.113 19.6484 79.3728 19.22V18.345ZM84.5955 12.8079V14.7219H85.8738V16.0413H84.5955V19.8284C84.5955 20.0198 84.6388 20.1793 84.7253 20.3069C84.8165 20.4345 84.9418 20.4983 85.1013 20.4983C85.1514 20.4983 85.2517 20.4915 85.4021 20.4778C85.5525 20.4596 85.7598 20.398 86.0242 20.2932V21.5647C85.7416 21.6741 85.4727 21.7424 85.2175 21.7698C84.9669 21.8017 84.7595 21.8176 84.5955 21.8176C84.3813 21.8176 84.1762 21.7743 83.9802 21.6877C83.7843 21.6012 83.6111 21.4804 83.4607 21.3254C83.3149 21.1659 83.1986 20.9745 83.1121 20.7512C83.0255 20.5279 82.9822 20.2795 82.9822 20.0061V16.0413H81.991V14.7219H82.9822V12.8079H84.5955ZM91.0349 17.1965C90.9073 16.7454 90.7364 16.4195 90.5222 16.219C90.3126 16.0139 90.0414 15.9114 89.7087 15.9114C89.4581 15.9114 89.2348 15.9729 89.0388 16.0959C88.8474 16.2144 88.6833 16.3739 88.5466 16.5745C88.4145 16.775 88.3142 17.0074 88.2458 17.2717C88.1775 17.5361 88.1433 17.8118 88.1433 18.0989C88.1433 18.3997 88.1775 18.6959 88.2458 18.9875C88.3188 19.2747 88.4213 19.5299 88.5535 19.7532C88.6902 19.9765 88.852 20.1565 89.0388 20.2932C89.2302 20.4299 89.4444 20.4983 89.6814 20.4983C89.8637 20.4983 90.0278 20.4573 90.1736 20.3752C90.324 20.2887 90.4539 20.1747 90.5632 20.0334C90.6772 19.8876 90.7706 19.7213 90.8435 19.5344C90.9164 19.343 90.9734 19.1402 91.0144 18.926H92.6892C92.6345 19.3772 92.5251 19.7805 92.3611 20.136C92.197 20.4915 91.9851 20.7945 91.7253 21.0452C91.4656 21.2958 91.1602 21.4872 90.8093 21.6194C90.4584 21.7515 90.0688 21.8176 89.6404 21.8176C89.2804 21.8176 88.9545 21.7698 88.6628 21.6741C88.3712 21.5738 88.1091 21.4394 87.8767 21.2708C87.6488 21.0976 87.4506 20.8925 87.282 20.6555C87.1134 20.4185 86.9721 20.1633 86.8582 19.8899C86.7488 19.6119 86.6667 19.3225 86.6121 19.0217C86.5574 18.7164 86.53 18.4088 86.53 18.0989C86.53 17.5885 86.6052 17.1191 86.7556 16.6907C86.9106 16.2577 87.127 15.8863 87.405 15.5764C87.683 15.262 88.018 15.0181 88.4099 14.845C88.8018 14.6718 89.2393 14.5852 89.7224 14.5852C90.1462 14.5852 90.5245 14.6536 90.8572 14.7903C91.1899 14.9224 91.4792 15.1047 91.7253 15.3372C91.9714 15.5696 92.1742 15.8453 92.3337 16.1643C92.4932 16.4833 92.6117 16.8274 92.6892 17.1965H91.0349ZM95.5125 12.1516V15.4807C96.0183 14.8837 96.6518 14.5852 97.4128 14.5852C97.7683 14.5852 98.0896 14.6422 98.3767 14.7561C98.6684 14.87 98.9145 15.0273 99.115 15.2278C99.3201 15.4283 99.4773 15.663 99.5867 15.9319C99.7006 16.2008 99.7576 16.4879 99.7576 16.7932V21.6809H98.1443V17.1624C98.1443 16.9436 98.1147 16.759 98.0554 16.6086C97.9962 16.4537 97.9164 16.3284 97.8162 16.2327C97.7205 16.1324 97.6088 16.0595 97.4812 16.0139C97.3536 15.9683 97.2214 15.9456 97.0847 15.9456C96.8979 15.9456 96.711 15.9866 96.5242 16.0686C96.3373 16.1506 96.1687 16.2623 96.0183 16.4036C95.8679 16.5448 95.7449 16.7112 95.6492 16.9026C95.558 17.094 95.5125 17.2991 95.5125 17.5178V21.6809H93.8992V12.1516H95.5125Z" fill="white"/>
<rect x="0.134766" y="28.7163" width="28.999" height="28.9934" rx="8" transform="rotate(-79.8827 0.134766 28.7163)" fill="#C1CAF7"/>
<rect x="4.00024" y="4.00049" width="26" height="26" rx="7" fill="white"/>
<path d="M21.5002 9H15.5002L12 18H15.5C15.5 18 13 23.5 12.5 24.5C12 25.5 21.5002 14.5 21.5002 14.5H17.5002L21.5002 9Z" fill="url(#paint0_linear_497_21)"/>
<defs>
<linearGradient id="paint0_linear_497_21" x1="16.7501" y1="9" x2="16.7501" y2="24.5643" gradientUnits="userSpaceOnUse">
<stop stop-color="#264B9A"/>
<stop offset="1" stop-color="#0F8DD2"/>
</linearGradient>
</defs>
</svg>
